<svg
  width="383"
  height="50"
  viewBox="0 0 383 66"
  fill="none"
  xmlns="http://www.w3.org/2000/svg"
>
  <path
    d="M42.912 8.064C42.912 9.28 42.496 10.336 41.664 11.232C40.832 12.064 39.776 12.48 38.496 12.48H28.416C27.584 12.48 27.168 12.896 27.168 13.728V61.536C27.168 62.752 26.72 63.808 25.824 64.704C24.992 65.536 23.968 65.952 22.752 65.952H20.256C19.04 65.952 17.984 65.536 17.088 64.704C16.256 63.808 15.84 62.752 15.84 61.536V13.728C15.84 12.896 15.424 12.48 14.592 12.48H4.416C3.2 12.48 2.144 12.064 1.248 11.232C0.416 10.336 0 9.28 0 8.064V5.472C0 4.192 0.416 3.136 1.248 2.304C2.144 1.472 3.2 1.056 4.416 1.056H38.496C39.776 1.056 40.832 1.472 41.664 2.304C42.496 3.136 42.912 4.192 42.912 5.472V8.064Z"
    fill="white"
  />
  <path
    d="M85.3792 61.536C85.3792 62.752 84.9632 63.808 84.1312 64.704C83.2992 65.536 82.2752 65.952 81.0592 65.952H78.3713C77.1553 65.952 76.1312 65.536 75.2992 64.704C74.4672 63.808 74.0512 62.752 74.0512 61.536V28.992C74.0512 28.608 73.8913 28.288 73.5713 28.032C73.3153 27.776 73.0273 27.648 72.7073 27.648H63.3952C63.0752 27.648 62.7552 27.776 62.4352 28.032C62.1792 28.288 62.0513 28.608 62.0513 28.992V61.536C62.0513 62.752 61.6352 63.808 60.8032 64.704C59.9712 65.536 58.9473 65.952 57.7313 65.952H55.0432C53.8272 65.952 52.7712 65.536 51.8752 64.704C51.0432 63.808 50.6272 62.752 50.6272 61.536V5.472C50.6272 4.192 51.0432 3.136 51.8752 2.304C52.7712 1.472 53.8272 1.056 55.0432 1.056H57.7313C58.9473 1.056 59.9712 1.472 60.8032 2.304C61.6352 3.136 62.0513 4.192 62.0513 5.472V15.072C62.0513 15.392 62.1792 15.68 62.4352 15.936C62.7552 16.128 63.0752 16.224 63.3952 16.224H74.7233C76.7073 16.224 78.4993 16.704 80.0993 17.664C81.6993 18.624 82.9792 19.936 83.9392 21.6C84.8992 23.2 85.3792 24.992 85.3792 26.976V61.536Z"
    fill="white"
  />
  <path
    d="M192.339 63.264C191.635 65.056 190.323 65.952 188.403 65.952H184.851C183.571 65.952 182.451 65.472 181.491 64.512L170.259 52.128C170.195 52 170.035 51.968 169.779 52.032C169.587 52.096 169.491 52.256 169.491 52.512V61.536C169.491 62.752 169.043 63.808 168.147 64.704C167.315 65.536 166.291 65.952 165.075 65.952H162.387C161.171 65.952 160.115 65.536 159.219 64.704C158.387 63.808 157.971 62.752 157.971 61.536V5.472C157.971 4.192 158.387 3.136 159.219 2.304C160.115 1.472 161.171 1.056 162.387 1.056H165.075C166.291 1.056 167.315 1.472 168.147 2.304C169.043 3.136 169.491 4.192 169.491 5.472V29.76C169.491 29.952 169.587 30.112 169.779 30.24C170.035 30.304 170.195 30.24 170.259 30.048L180.435 19.008C181.267 18.048 182.323 17.568 183.603 17.568H187.155C189.011 17.568 190.355 18.464 191.187 20.256C191.507 21.024 191.603 21.856 191.475 22.752C191.347 23.584 190.995 24.288 190.419 24.864L176.499 40.224C176.243 40.48 176.115 40.8 176.115 41.184C176.115 41.504 176.243 41.76 176.499 41.952L191.571 58.56C192.147 59.2 192.499 59.968 192.627 60.864C192.819 61.696 192.723 62.496 192.339 63.264Z"
    fill="white"
  />
  <path
    d="M243.254 61.536C243.254 62.752 242.838 63.808 242.006 64.704C241.174 65.536 240.118 65.952 238.838 65.952H236.246C235.03 65.952 233.973 65.536 233.077 64.704C232.246 63.808 231.83 62.752 231.83 61.536V40.416C231.83 39.648 231.414 39.264 230.582 39.264H213.302C212.47 39.264 212.054 39.648 212.054 40.416V61.536C212.054 62.752 211.606 63.808 210.71 64.704C209.878 65.536 208.854 65.952 207.638 65.952H204.95C203.734 65.952 202.678 65.536 201.782 64.704C200.95 63.808 200.534 62.752 200.534 61.536V5.472C200.534 4.192 200.95 3.136 201.782 2.304C202.678 1.472 203.734 1.056 204.95 1.056H207.638C208.854 1.056 209.878 1.472 210.71 2.304C211.606 3.136 212.054 4.192 212.054 5.472V26.496C212.054 27.392 212.47 27.84 213.302 27.84H230.582C231.414 27.84 231.83 27.392 231.83 26.496V5.472C231.83 4.192 232.246 3.136 233.077 2.304C233.973 1.472 235.03 1.056 236.246 1.056H238.838C240.118 1.056 241.174 1.472 242.006 2.304C242.838 3.136 243.254 4.192 243.254 5.472V61.536Z"
    fill="white"
  />
  <path
    d="M285.817 55.2C285.817 58.208 284.761 60.768 282.649 62.88C280.601 64.928 278.105 65.952 275.161 65.952H261.817C258.873 65.952 256.345 64.928 254.233 62.88C252.121 60.768 251.065 58.208 251.065 55.2V26.976C251.065 24.992 251.545 23.2 252.505 21.6C253.529 19.936 254.841 18.624 256.441 17.664C258.041 16.704 259.833 16.224 261.817 16.224H275.161C277.145 16.224 278.937 16.704 280.537 17.664C282.137 18.624 283.417 19.936 284.377 21.6C285.337 23.2 285.817 24.992 285.817 26.976V55.2ZM274.489 53.376V28.992C274.489 28.608 274.329 28.288 274.009 28.032C273.753 27.776 273.465 27.648 273.145 27.648H263.833C263.513 27.648 263.193 27.776 262.873 28.032C262.617 28.288 262.489 28.608 262.489 28.992V53.376C262.489 53.696 262.617 53.984 262.873 54.24C263.193 54.496 263.513 54.624 263.833 54.624H273.145C273.465 54.624 273.753 54.496 274.009 54.24C274.329 53.984 274.489 53.696 274.489 53.376Z"
    fill="white"
  />
  <path
    d="M340.379 61.536C340.379 62.752 339.931 63.808 339.035 64.704C338.203 65.536 337.179 65.952 335.963 65.952H333.275C332.059 65.952 331.003 65.536 330.107 64.704C329.275 63.808 328.859 62.752 328.859 61.536V28.992C328.859 28.096 328.443 27.648 327.611 27.648H323.867C323.099 27.648 322.715 28.096 322.715 28.992V61.536C322.715 62.752 322.267 63.808 321.371 64.704C320.539 65.536 319.515 65.952 318.299 65.952H315.707C314.491 65.952 313.435 65.536 312.539 64.704C311.707 63.808 311.291 62.752 311.291 61.536V28.992C311.291 28.096 310.907 27.648 310.139 27.648H306.395C305.563 27.648 305.147 28.096 305.147 28.992V61.536C305.147 62.752 304.699 63.808 303.803 64.704C302.971 65.536 301.947 65.952 300.731 65.952H298.043C296.827 65.952 295.771 65.536 294.875 64.704C294.043 63.808 293.627 62.752 293.627 61.536V26.976C293.627 24.992 294.107 23.2 295.067 21.6C296.091 19.936 297.403 18.624 299.003 17.664C300.603 16.704 302.395 16.224 304.379 16.224H311.963C313.371 16.224 314.651 16.512 315.803 17.088C316.571 17.28 317.371 17.28 318.203 17.088C319.355 16.512 320.635 16.224 322.043 16.224H329.627C331.611 16.224 333.403 16.704 335.003 17.664C336.603 18.624 337.883 19.936 338.843 21.6C339.867 23.2 340.379 24.992 340.379 26.976V61.536Z"
    fill="white"
  />
  <path
    d="M382.848 37.44C382.848 39.36 382.368 41.152 381.408 42.816C380.448 44.416 379.168 45.728 377.568 46.752C375.968 47.712 374.176 48.192 372.192 48.192H360.864C360.544 48.192 360.224 48.32 359.904 48.576C359.648 48.768 359.52 49.024 359.52 49.344V53.376C359.52 53.696 359.648 53.984 359.904 54.24C360.224 54.496 360.544 54.624 360.864 54.624H372.192C373.408 54.624 374.432 55.04 375.264 55.872C376.16 56.704 376.608 57.76 376.608 59.04V61.536C376.608 62.752 376.16 63.808 375.264 64.704C374.432 65.536 373.408 65.952 372.192 65.952H358.848C355.904 65.952 353.376 64.928 351.264 62.88C349.152 60.768 348.096 58.208 348.096 55.2V26.976C348.096 24.992 348.576 23.2 349.536 21.6C350.56 20 351.872 18.72 353.472 17.76C355.072 16.736 356.864 16.224 358.848 16.224H372.192C374.176 16.224 375.968 16.736 377.568 17.76C379.168 18.72 380.448 20 381.408 21.6C382.368 23.2 382.848 24.992 382.848 26.976V37.44ZM371.52 35.52V28.992C371.52 28.608 371.36 28.288 371.04 28.032C370.784 27.776 370.496 27.648 370.176 27.648H360.864C360.544 27.648 360.224 27.776 359.904 28.032C359.648 28.288 359.52 28.608 359.52 28.992V35.52C359.52 35.776 359.648 36.032 359.904 36.288C360.224 36.544 360.544 36.672 360.864 36.672H370.176C370.496 36.672 370.784 36.544 371.04 36.288C371.36 36.032 371.52 35.776 371.52 35.52Z"
    fill="white"
  />
  <path
    fillRule="evenodd"
    clipRule="evenodd"
    d="M106.15 61.536C106.15 62.752 105.702 63.808 104.806 64.704C103.974 65.536 102.95 65.952 101.734 65.952H99.1417C97.9257 65.952 96.8697 65.536 95.9737 64.704C95.1417 63.808 94.7257 62.752 94.7257 61.536V21.696C94.7257 20.48 95.1417 19.456 95.9737 18.624C96.8697 17.728 97.9257 17.28 99.1417 17.28H101.734C102.95 17.28 103.974 17.728 104.806 18.624C105.702 19.456 106.15 20.48 106.15 21.696V61.536Z"
    fill="white"
  />
  <path
    d="M148.913 64.704C149.745 63.808 150.161 62.752 150.161 61.536V26.976C150.161 24.992 149.681 23.2 148.721 21.6C147.76 19.936 146.481 18.624 144.881 17.664C143.281 16.704 141.488 16.224 139.505 16.224H126.16C124.176 16.224 122.384 16.704 120.785 17.664C119.185 18.624 117.872 19.936 116.848 21.6C115.888 23.2 115.409 24.992 115.409 26.976V61.536C115.409 62.752 115.825 63.808 116.657 64.704C117.552 65.536 118.608 65.952 119.825 65.952H122.512C123.728 65.952 124.753 65.536 125.585 64.704C126.417 63.808 126.832 62.752 126.832 61.536V28.992C126.832 28.608 126.961 28.288 127.216 28.032C127.537 27.776 127.857 27.648 128.177 27.648H137.489C137.809 27.648 138.097 27.776 138.353 28.032C138.673 28.288 138.833 28.608 138.833 28.992V61.536C138.833 62.752 139.249 63.808 140.081 64.704C140.913 65.536 141.937 65.952 143.153 65.952H145.841C147.057 65.952 148.081 65.536 148.913 64.704Z"
    fill="white"
  />
  <path
    d="M107.686 7.2C107.686 9.184 106.95 10.912 105.478 12.384C104.07 13.792 102.406 14.496 100.486 14.496C98.5017 14.496 96.7738 13.792 95.3018 12.384C93.8938 10.912 93.1898 9.184 93.1898 7.2C93.1898 5.28 93.8938 3.616 95.3018 2.208C96.7738 0.736 98.5017 0 100.486 0C102.406 0 104.07 0.736 105.478 2.208C106.95 3.616 107.686 5.28 107.686 7.2Z"
    fill="#FF0000"
  />
</svg>